<?xml version="1.0" standalone="no"?>
<!DOCTYPE svg PUBLIC "-//W3C//DTD SVG 20010904//EN"
 "http://www.w3.org/TR/2001/REC-SVG-20010904/DTD/svg10.dtd">
<svg version="1.0" xmlns="http://www.w3.org/2000/svg"
 width="512.000000pt" height="512.000000pt" viewBox="0 0 512.000000 512.000000"
 preserveAspectRatio="xMidYMid meet">

<g transform="translate(0.000000,512.000000) scale(0.100000,-0.100000)"
fill="#000000" stroke="none">
<path d="M2310 5079 c-986 -110 -1819 -775 -2141 -1707 -98 -286 -139 -532
-139 -839 0 -662 248 -1287 694 -1751 293 -304 691 -540 1107 -656 270 -75
395 -91 709 -91 279 1 396 14 604 66 477 119 894 360 1232 712 368 381 593
832 686 1373 19 110 22 167 23 394 0 314 -16 439 -91 709 -115 410 -329 778
-628 1077 -396 396 -912 642 -1486 709 -134 16 -444 18 -570 4z m455 -269
c498 -46 977 -263 1348 -610 303 -284 542 -695 640 -1101 49 -201 61 -309 61
-539 0 -230 -12 -338 -61 -539 -78 -325 -246 -653 -471 -921 -296 -354 -732
-624 -1183 -733 -201 -49 -309 -61 -539 -61 -231 0 -338 12 -540 61 -396 96
-810 334 -1087 626 -456 480 -682 1125 -623 1772 54 583 345 1143 790 1518
464 390 1069 582 1665 527z"/>
<path d="M2203 3480 c-83 -42 -77 -1 -83 -668 l-5 -593 -422 618 c-284 417
-431 624 -451 636 -40 23 -119 22 -156 -2 -15 -10 -37 -32 -47 -47 -18 -28
-19 -63 -19 -864 0 -821 0 -836 20 -868 26 -42 99 -76 144 -68 46 9 93 41 113
78 17 30 18 78 23 588 l5 555 388 -570 c214 -314 403 -584 422 -602 92 -87
242 -47 274 74 8 29 11 281 9 846 -3 796 -3 806 -24 833 -51 69 -122 89 -191
54z"/>
<path d="M3890 3478 c-81 -42 -85 -55 -88 -350 l-3 -256 -82 38 c-114 52 -174
65 -302 64 -90 -1 -125 -6 -190 -27 -228 -75 -397 -253 -455 -483 -78 -302 74
-631 354 -768 104 -51 185 -69 301 -70 120 0 201 19 306 72 l77 39 16 -34 c17
-37 64 -70 112 -79 45 -8 118 26 144 68 20 32 20 47 20 868 0 820 0 836 -20
868 -21 34 -87 71 -125 72 -12 0 -41 -10 -65 -22z m-305 -837 c78 -36 144
-101 182 -179 25 -51 28 -67 28 -162 0 -95 -3 -111 -28 -162 -72 -147 -246
-238 -402 -209 -123 23 -223 98 -277 209 -30 61 -33 74 -33 162 0 82 4 103 27
152 92 196 312 279 503 189z"/>
</g>
</svg>
